<?xml version="1.0" standalone="no"?>
<!DOCTYPE svg PUBLIC "-//W3C//DTD SVG 20010904//EN"
 "http://www.w3.org/TR/2001/REC-SVG-20010904/DTD/svg10.dtd">
<svg version="1.0" xmlns="http://www.w3.org/2000/svg"
 width="512.000000pt" height="512.000000pt" viewBox="0 0 512.000000 512.000000"
 preserveAspectRatio="xMidYMid meet">

<g transform="translate(0.000000,512.000000) scale(0.100000,-0.100000)"
fill="#000000" stroke="none">
<path d="M813 4469 c-387 -41 -713 -342 -794 -734 -18 -85 -19 -161 -19 -1375
0 -770 4 -1319 10 -1370 59 -515 465 -921 980 -980 114 -13 3026 -13 3140 0
515 59 921 465 980 980 6 51 10 600 10 1370 0 1214 -1 1290 -19 1375 -40 193
-130 355 -274 491 -147 139 -330 222 -537 243 -125 13 -3354 13 -3477 0z m563
-765 c50 -24 65 -62 75 -184 12 -171 42 -278 120 -431 60 -117 107 -181 207
-282 120 -122 275 -218 437 -270 138 -44 191 -52 360 -51 138 1 173 5 257 27
324 86 579 292 727 587 74 148 121 330 121 470 0 70 28 118 82 138 48 19 83 9
126 -34 l35 -35 -6 -127 c-16 -339 -157 -643 -411 -890 -204 -198 -449 -322
-724 -368 -152 -24 -399 -16 -540 20 -587 148 -997 640 -1037 1246 -7 112 7
154 65 182 43 22 63 22 106 2z m154 -1895 c0 -27 53 -79 80 -79 12 0 18 -4 15
-10 -3 -5 -15 -10 -25 -10 -23 0 -70 -55 -70 -81 0 -10 -4 -19 -10 -19 -5 0
-10 9 -10 19 0 28 -45 78 -77 86 -27 6 -27 6 14 25 43 19 63 44 63 80 0 12 5
18 10 15 6 -3 10 -15 10 -26z m-401 -297 c52 -136 103 -268 113 -294 l18 -48
-39 0 -39 0 -27 70 -27 71 -136 -3 -135 -3 -25 -67 -25 -68 -39 0 c-28 0 -39
4 -35 13 2 6 53 139 112 295 l108 282 41 0 41 0 94 -248z m251 -47 l0 -295
-40 0 -40 0 0 295 0 295 40 0 40 0 0 -295z m638 258 l-3 -38 -137 -3 -138 -3
0 -84 0 -85 120 0 120 0 0 -40 0 -40 -120 0 -120 0 0 -90 0 -90 150 0 150 0 0
-40 0 -40 -190 0 -190 0 0 295 0 295 181 0 180 0 -3 -37z m823 -144 c151 -76
160 -292 17 -386 -36 -24 -52 -28 -113 -28 -61 0 -77 4 -113 28 l-42 27 0
-135 0 -135 -40 0 -40 0 0 218 c0 119 5 237 11 261 33 143 189 217 320 150z
m399 -8 c0 -36 -3 -40 -31 -46 -43 -10 -97 -60 -109 -103 -5 -20 -10 -85 -10
-144 l0 -108 -40 0 -40 0 2 213 3 212 38 3 c32 3 37 0 37 -17 0 -22 14 -28 25
-11 6 9 87 38 113 39 7 1 12 -13 12 -38z m333 7 c23 -11 50 -38 68 -65 24 -39
29 -57 29 -110 l0 -63 -165 0 c-113 0 -165 -3 -165 -11 0 -25 43 -69 85 -84
52 -20 100 -15 139 16 l26 20 31 -21 c29 -21 29 -23 13 -41 -49 -54 -166 -75
-242 -43 -122 50 -175 204 -109 316 61 105 181 141 290 86z m349 22 c35 -10
98 -54 98 -69 0 -3 -12 -14 -27 -23 -25 -15 -28 -15 -55 5 -54 40 -148 18
-148 -34 0 -23 24 -36 114 -61 39 -10 81 -29 94 -40 47 -45 47 -131 0 -176
-66 -61 -205 -56 -276 11 l-23 22 27 21 26 22 36 -24 c66 -45 162 -24 162 35
0 37 -12 46 -90 66 -105 27 -139 56 -140 118 0 64 29 100 100 124 45 15 57 15
102 3z m370 -2 c39 -11 88 -49 88 -66 0 -6 -11 -17 -25 -26 -24 -16 -26 -15
-46 3 -46 43 -149 28 -149 -22 0 -33 14 -42 97 -65 91 -26 109 -36 128 -72 34
-65 10 -137 -57 -171 -60 -30 -159 -24 -217 14 -47 31 -50 45 -15 70 24 18 25
18 55 -7 58 -49 169 -27 169 32 0 29 -33 52 -96 69 -115 30 -151 64 -141 135
7 49 38 84 93 103 49 18 67 18 116 3z m-2732 -218 l0 -210 -40 0 -40 0 0 210
0 210 40 0 40 0 0 -210z m657 135 c52 -68 59 -73 71 -57 93 126 100 132 148
132 36 0 44 -3 37 -12 -5 -7 -40 -52 -76 -99 -37 -48 -67 -91 -67 -97 0 -5 31
-50 68 -99 93 -121 91 -113 38 -113 -45 0 -46 1 -102 75 -31 41 -58 75 -59 75
-1 0 -28 -34 -60 -75 -56 -73 -58 -75 -101 -75 -24 0 -44 2 -44 4 0 2 34 48
75 101 41 54 75 102 75 107 0 5 -30 48 -67 96 -37 48 -71 93 -76 100 -7 9 1
12 36 12 46 0 47 -1 104 -75z"/>
<path d="M968 1594 c-15 -38 -38 -99 -52 -136 l-26 -68 104 0 104 0 -48 125
c-27 69 -50 131 -52 137 -3 7 -16 -19 -30 -58z"/>
<path d="M2670 1511 c-47 -25 -72 -70 -72 -130 0 -151 183 -205 263 -78 29 46
23 136 -12 173 -52 56 -117 69 -179 35z"/>
<path d="M3420 1519 c-33 -13 -59 -38 -76 -71 l-15 -28 131 0 c142 0 148 3
113 57 -30 45 -98 64 -153 42z"/>
</g>
</svg>
